<svg xmlns="http://www.w3.org/2000/svg" style="isolation:isolate" width="445" height="488.493"><defs><clipPath id="a"><path d="M0 0h445v488.493H0z"/></clipPath></defs><g clip-path="url(#a)"><path d="M190.176 14.222c-.798.398-2.029 2.137-2.935 3.152-4.964 5.326-7.174 15.036-11.413 50.29-1.124 9.384-2.174 17.138-2.283 17.283-.145.181-4.239-1.449-9.094-3.551-37.863-16.341-45.399-19.348-62.646-25-5.036-1.667-12.717-3.406-15.036-3.406-1.739 0-3.913.906-4.529 1.884-.761 1.196-.58 5.181.326 8.479 3.297 11.775 16.014 39.783 25.471 56.123 4.275 7.355 11.486 17.464 11.486 16.087 0-.217-1.522-2.934-3.406-6.05-10.254-17.174-15.29-28.805-18.479-42.863-2.536-11.232-3.043-18.696-1.413-20.906.979-1.341 3.116-1.486 6.051-.399 6.051 2.174 30 13.551 43.153 20.508 13.442 7.101 25.543 14.565 25.543 15.761 0 .326-.543 2.79-1.231 5.435-2.863 11.123-6.667 17.029-15.617 24.384-4.927 4.022-7.826 6.087-24.674 17.464-27.246 18.406-36.594 25.471-46.848 35.435-9.891 9.638-16.993 19.71-21.196 30.145-4.456 11.16-5.725 18.95-6.377 39.602-.398 12.174-.942 17.935-2.355 24.493-3.188 14.674-10.254 32.211-18.152 44.892-6.45 10.362-7.174 11.667-8.225 14.312-2.246 5.688-1.63 10.797 2.283 18.695 3.768 7.718 10.145 16.486 16.811 23.189 6.232 6.232 10.617 9.058 20.073 12.971 5.471 2.247 7.355 3.478 13.66 8.913 10.326 8.877 18.369 12.863 30.254 15.109 4.963.942 22.029.942 28.985 0 12.501-1.703 25.363-4.638 35.87-8.261 3.479-1.195 6.595-2.246 6.921-2.355 1.232-.435 17.319 22.21 35.761 50.254 12.246 18.624 14.674 22.102 15.145 21.631.399-.399-1.377-4.638-5.145-12.247-10.507-21.268-23.913-42.79-37.21-59.674l-2.066-2.609 5.508-2.826c7.029-3.623 11.268-6.268 16.92-10.507 2.464-1.848 4.565-3.37 4.746-3.37.399 0 12.102 8.66 18.841 13.949 18.261 14.348 26.522 21.704 70.979 63.153 13.66 12.754 17.5 15.653 14.095 10.653-4.856-7.138-21.051-25.182-36.015-40.11-19.566-19.565-35.327-32.753-57.102-47.862-2.971-2.029-5.58-3.768-5.798-3.877-.289-.073.906-1.558 2.827-3.587 3.333-3.442 5.507-6.268 5.108-6.667-.398-.398-1.739.29-7.137 3.841l-5.508 3.587-4.203-2.573c-13.333-8.043-33.877-18.732-37.935-19.71l-1.087-.254.725.797c1.051 1.196 4.058 3.261 14.493 10 12.138 7.79 22.645 14.783 22.645 15.073 0 .399-12.718 7.428-19.819 10.978-3.841 1.921-7.029 3.479-7.102 3.479-.072 0-2.536-2.609-5.507-5.834-7.355-8.007-17.645-17.355-19.058-17.355-1.196 0 .145 1.92 10.906 15.544 4.275 5.435 7.754 10 7.717 10.109-.108.362-10.471 4.347-16.232 6.195-17.427 5.652-32.79 6.558-48.189 2.79-19.239-4.71-47.754-19.638-59.239-31.015-4.131-4.094-5.254-6.956-4.348-11.232.543-2.608 3.442-8.695 7.681-16.123 8.442-14.855 10.109-19.384 8.406-22.681-1.268-2.5-4.348-2.935-13.116-1.921-6.015.689-9.022.58-9.747-.434-1.413-1.848.254-5.725 7.609-17.609 9.239-15 13.334-22.899 15.761-30.363 1.739-5.435 2.065-7.355 2.065-13.406 0-6.159-.289-8.116-2.391-17.029-1.848-7.899-2.5-11.848-2.5-15 0-11.232 6.341-23.08 21.739-40.834 4.783-5.471 16.414-16.993 22.211-21.92 20.906-15.725 43.37-28.044 60.761-36.378 7.609-10.507 10.87-20.29 15.58-33.696 1.087-12.681.362-8.333 1.449-19.203 0-6.522.363-7.971 1.087-13.768.363-5.435 0-5.797 0-10.145.725-5.797.363-9.058 1.812-15.942 0-4.71.725-6.884 2.536-11.232 1.449-5.797 2.174-5.797 6.522-4.348 5.435 2.174 18.841 13.406 19.203 13.044.906-.906 14.493 11.232 56.993 43.949 63.226 46.341 84.132 63.008 105.654 84.132 4.695 4.619 9.225 7.6 11.993 10.326 3.26 3.623 5.431 5.812 7.971 8.695 1.923 2.185 4.445 4.917 7.608 7.972q7.971 8.695 11.595 13.768 5.616 7.717 7.246 8.696c.761.507.254 1.195 0 0-.326-1.776-15.725-25.435-20.29-33.334-7.609-10.507-17.029-25.363-63.225-64.095-22.645-18.515-38.153-30.834-95.834-71.124-9.856-6.92-22.175-15.58-27.356-19.275-14.239-10.182-19.13-12.863-23.732-13.153-1.775-.108-2.899-.616-3.985-.108z" fill="#9E9E9E"/><path d="M120.066 231.253c-5.326.471-13.188 1.739-17.029 2.717-5.471 1.377-7.754 2.935-7.246 4.964.144.507 1.34 2.283 2.681 3.949 3.116 3.913 5.072 6.74 8.406 12.066 3.26 5.326 5.869 8.188 8.55 9.492 5.725 2.79 15.363.472 25.146-6.087 5.869-3.913 9.203-7.717 12.79-14.674 2.427-4.601 3.985-5.978 8.985-7.862l2.138-.797-1.377-.435c-1.957-.58-11.413-2.138-16.957-2.79-5.652-.688-21.014-.978-26.087-.543zM174.414 342.305c.979.833 5.073 2.717 11.595 5.326 16.014 6.377 30.145 13.442 44.094 21.884 10.834 6.594 18.588 11.884 43.044 29.312 15.616 11.123 18.08 12.826 19.856 13.732 2.246 1.159 1.232-.29-3.442-4.928-5.725-5.616-8.116-7.753-15.617-13.985-24.311-20.254-43.985-32.718-66.196-41.921-10.87-4.529-26.558-9.348-31.848-9.819-2.101-.181-2.174-.181-1.486.399z" fill="#9E9E9E"/><path d="M192.046 23.431c18.639 16.227 38.621 39.236 50.287 60.236 10.334 20 18.655 38.744 20.667 53.333q-22.333 7.667-48.587 6.157c-3.29-28.945-2.632-7.894-11.841-3.289.818-3.562 1.918-23.075-3.29-29.603q-4.734 36.207-9.209 30.261c-1.069-2.202 4.58-17.53 0-19.735 1.107-.012-3.078 17.776-9.868 15.13l-11.538-3.588c5.92-13.156 10.505-25.468 13.666-37-.333-18.666 3.228-60.059 9.713-71.902z" fill="#B9B9B9" vector-effect="non-scaling-stroke" stroke="#B9B9B9" stroke-linecap="square" stroke-miterlimit="3"/></g></svg>
